<svg width="295" height="299" viewBox="0 0 295 299" fill="none" xmlns="http://www.w3.org/2000/svg">
<rect width="295" height="299" rx="147.5" fill="black"/>
<path d="M126.343 163.705C125.369 163.519 125.777 163.921 125.557 164.447C120.215 177.594 118.235 192.846 112.988 206.024C111.511 209.736 110.599 212.799 105.949 213.263C96.7414 214.16 78.7981 211.747 69.8109 209.056C63.5889 207.169 62.4262 204.972 61.075 198.785C58.9067 189.01 59.3152 178.801 59.5352 168.933C59.7552 159.064 59.7866 149.876 60.1637 140.318C54.036 136.451 45.7714 133.666 40.1779 128.964C37.6326 126.799 37.8211 126.056 38.5125 122.963C40.0208 116.064 49.8566 95.8947 55.3872 91.7185C57.6183 90.017 59.001 90.4501 61.5778 91.0379C68.1454 92.5537 93.976 104.031 97.2441 109.197C100.512 114.363 98.1554 111.61 98.721 112.816C102.366 104.588 105.854 96.204 110.002 88.1918C114.15 80.1797 114.527 79.4681 117.01 75.8796C119.398 72.4768 119.681 71.7034 124.049 73.0027C132.031 75.4156 147.617 84.8818 154.153 90.2026C159.747 94.75 159.275 97.2559 159.809 104.185C160.469 112.569 160.281 121.076 160.846 129.459C161.915 145.545 164.9 161.508 168.545 177.161L176.339 147.773C190.762 97.2872 192.622 98.9495 212.386 60.88C214.529 58.524 253.283 66.0685 256.708 71.2965C257.305 72.1936 256.581 71.8272 256.204 73.0027C256.204 73.0027 234.976 104.557 218.321 151.702C212.256 168.932 208.485 185.452 204.055 203.054C202.232 210.324 198.838 227.462 192.993 231.948C189.191 234.856 178.538 236.464 173.605 237.114C167.76 237.918 152.896 239.681 147.9 237.547C140.578 234.453 134.984 214.531 133.099 207.292C129.391 193.031 127.223 178.368 126.217 163.674L126.343 163.705Z" fill="#D3FF33"/>
<path d="M117.083 75.3193L119.552 95.9667L123.175 132.78L125.808 163.671C125.808 163.671 115.602 204.833 107.533 210.407C95.0875 219.004 73.6134 208.508 70.8166 206.566C66.2064 203.365 86.9461 139.982 86.9461 139.982C86.9461 139.982 102.855 101.874 106.216 94.5263C109.39 87.587 113.637 80.104 115.601 77.2401C116.259 76.2798 117.083 75.3193 117.083 75.3193Z" fill="url(#paint0_linear_59817_17948)" fill-opacity="0.18"/>
<path d="M52.8774 77.5186L64.471 111.718L61.2264 141.194C61.2264 141.194 47.6949 133.052 41.9665 129.795C36.2381 126.538 36.6472 125.398 36.6472 125.398C36.6472 125.398 39.2227 118.216 43.3986 110.741C47.3426 103.68 52.8774 94.1297 55.2646 93.4783C56.4976 93.1418 52.8774 77.5186 52.8774 77.5186Z" fill="url(#paint1_linear_59817_17948)" fill-opacity="0.2"/>
<path d="M122.453 149.551L157.139 121.815C157.139 121.815 158.563 128.972 160.292 140.306C162.054 151.855 166.981 171.123 166.981 171.123C166.981 171.123 141.659 232.681 138.219 226.595C134.779 220.51 132.773 206.797 128.759 189.614C124.746 172.431 122.453 149.551 122.453 149.551Z" fill="url(#paint2_linear_59817_17948)" fill-opacity="0.2"/>
<path d="M217.076 162.499L183.025 127.352C183.025 127.352 178.262 141.791 176.664 152.338C175.908 157.326 167.898 174.585 159.531 191.649C151.697 213.636 139.151 229.461 139.151 229.461C139.151 229.461 140.972 235.878 146.396 237.29C154.117 239.299 165.954 236.965 173.077 236.457C186.189 235.521 195.103 231.903 196.755 228.961C199.936 223.298 204.353 211.804 208.064 195.813C211.775 179.822 217.076 162.499 217.076 162.499Z" fill="url(#paint3_linear_59817_17948)" fill-opacity="0.2"/>
<defs>
<linearGradient id="paint0_linear_59817_17948" x1="114.685" y1="75.5977" x2="110.326" y2="209.413" gradientUnits="userSpaceOnUse">
<stop offset="0.205"/>
<stop offset="1" stop-color="#6B6B6B" stop-opacity="0.29"/>
</linearGradient>
<linearGradient id="paint1_linear_59817_17948" x1="47.3113" y1="83.0556" x2="47.3113" y2="132.889" gradientUnits="userSpaceOnUse">
<stop/>
<stop offset="1" stop-color="#6B6B6B" stop-opacity="0.29"/>
</linearGradient>
<linearGradient id="paint2_linear_59817_17948" x1="147.679" y1="109.488" x2="147.679" y2="226.595" gradientUnits="userSpaceOnUse">
<stop stop-color="#767676" stop-opacity="0"/>
<stop offset="0.605" stop-opacity="0.52"/>
</linearGradient>
<linearGradient id="paint3_linear_59817_17948" x1="193.221" y1="123.854" x2="193.221" y2="232.837" gradientUnits="userSpaceOnUse">
<stop stop-color="#767676" stop-opacity="0"/>
<stop offset="1" stop-opacity="0.5"/>
</linearGradient>
</defs>
</svg>
