<svg width="686" height="672" viewBox="0 0 686 672" fill="none" xmlns="http://www.w3.org/2000/svg">
<path d="M239.773 465.655C237.127 465.143 238.237 466.252 237.639 467.702C223.13 503.942 217.752 545.98 203.499 582.306C199.487 592.538 197.012 600.98 184.38 602.259C159.372 604.732 110.637 598.081 86.2264 590.662C69.327 585.461 66.1689 579.406 62.4988 562.352C56.6096 535.407 57.7192 507.267 58.3166 480.066C58.9141 452.864 58.9994 427.539 60.0236 401.19C43.3802 390.531 20.9328 382.857 5.74035 369.896C-1.17306 363.927 -0.660974 361.88 1.21674 353.353C5.31358 334.338 32.0285 278.741 47.0503 267.23C53.1102 262.54 56.8657 263.734 63.8644 265.354C81.7028 269.532 151.861 301.168 160.738 315.408C169.614 329.648 163.213 322.059 164.749 325.385C174.65 302.703 184.124 279.594 195.39 257.509C206.657 235.424 207.681 233.463 214.424 223.571C220.91 214.191 221.679 212.06 233.542 215.641C255.222 222.292 297.556 248.385 315.309 263.052C330.501 275.586 329.221 282.493 330.672 301.594C332.464 324.702 331.952 348.152 333.489 371.26C336.39 415.601 344.499 459.601 354.4 502.748L375.567 421.741C414.743 282.579 480.122 148.874 571.618 36.7427C578.105 28.8125 584.591 20.456 591.59 13.0374C598.589 5.61885 603.71 0.502596 604.82 0.161513C606.953 -0.435383 608.746 0.758407 610.538 1.52585C625.987 8.00643 673.698 51.324 683.001 65.7348C684.623 68.2076 686.757 70.4247 685.732 73.665C597.65 179.827 534.832 302.617 489.596 432.57C473.123 480.066 462.881 525.6 450.846 574.12C445.896 594.158 436.678 641.398 420.803 653.763C410.475 661.778 381.541 666.212 368.141 668.003C352.266 670.22 311.895 675.08 298.324 669.197C278.437 660.669 263.245 605.755 258.124 585.802C248.052 546.492 242.163 506.073 239.432 465.57L239.773 465.655Z" fill="black" fill-opacity="0.02"/>
</svg>
